<?xml version="1.0" encoding="UTF-8" ?> <!-- fill = "#049cc4" -->
<svg width="359pt" height="359pt" viewBox="0 0 359 359" version="1.1" xmlns="http://www.w3.org/2000/svg">
    <path fill="none" d=" M 0.00 0.00 L 359.00 0.00 L 359.00 359.00 L 104.39 359.00 C 102.94 349.16 104.47 339.19 103.61 329.32 C 101.99 317.74 96.84 307.04 91.23 296.91 C 92.27 296.22 93.31 295.53 94.36 294.84 C 107.78 302.96 120.96 311.48 134.30 319.73 C 137.00 321.84 140.31 320.15 142.99 318.93 C 148.74 316.31 151.96 310.52 156.95 306.88 C 161.32 303.68 164.35 298.55 164.08 293.03 C 163.93 282.46 160.84 272.22 157.83 262.18 C 151.29 240.94 142.69 220.33 132.16 200.76 C 129.21 195.50 126.04 190.34 122.48 185.47 C 119.93 182.00 116.72 178.74 112.48 177.49 C 107.40 175.88 102.11 177.63 96.94 177.00 C 91.33 176.41 85.15 177.01 80.55 180.54 C 78.26 184.04 77.64 188.32 76.34 192.24 C 73.49 201.45 71.12 210.82 67.72 219.84 C 65.05 210.06 64.29 199.90 63.19 189.86 C 62.70 178.67 61.96 167.32 64.18 156.25 C 68.77 131.37 83.83 108.97 104.09 94.05 C 116.51 84.59 130.90 77.89 145.93 73.82 C 155.17 71.23 164.74 70.23 174.25 69.22 C 181.98 68.42 189.70 69.68 197.36 70.64 C 218.42 73.29 238.76 81.54 255.74 94.27 C 268.82 104.64 280.33 117.37 287.48 132.58 C 295.49 149.01 298.31 167.83 296.25 185.93 C 295.77 197.16 294.46 208.38 292.04 219.36 C 287.88 210.64 286.04 201.06 283.00 191.93 C 281.60 188.07 281.23 183.65 278.69 180.32 C 272.76 176.13 265.23 176.87 258.39 177.07 C 252.41 176.42 245.56 176.40 241.02 181.01 C 234.04 188.08 229.28 196.96 224.71 205.68 C 217.80 218.91 211.95 232.67 206.78 246.67 C 201.77 260.84 197.04 275.26 195.29 290.25 C 194.61 295.48 196.28 301.12 200.23 304.72 C 203.01 307.30 206.05 309.61 208.42 312.61 C 211.51 316.44 215.90 319.02 220.55 320.52 C 223.07 321.51 225.36 319.56 227.45 318.42 C 239.78 310.41 252.33 302.74 264.77 294.91 C 269.74 297.22 274.71 299.80 280.14 300.79 C 283.87 301.28 286.56 298.09 287.97 295.04 C 305.13 260.64 313.53 222.29 315.03 184.01 C 314.83 174.94 315.59 165.80 314.20 156.79 C 310.60 124.36 294.45 93.59 270.11 71.90 C 249.11 53.04 222.07 41.14 194.01 38.21 C 187.02 37.74 180.00 38.08 173.00 37.97 C 162.14 37.78 151.41 40.10 141.02 43.08 C 107.85 52.76 78.82 75.77 61.94 105.93 C 48.50 129.12 42.85 156.37 44.45 183.03 C 45.70 221.04 53.88 259.10 70.65 293.35 C 72.07 296.06 73.61 299.14 76.56 300.44 C 79.26 301.09 82.05 300.36 84.76 300.12 C 91.07 311.42 97.13 323.67 97.00 336.93 C 97.01 344.29 96.99 351.64 97.00 359.00 L 0.00 359.00 L 0.00 0.00 Z" />
    <path fill="#0a0b0b" d=" M 141.02 43.08 C 151.41 40.10 162.14 37.78 173.00 37.97 C 180.00 38.08 187.02 37.74 194.01 38.21 C 222.07 41.14 249.11 53.04 270.11 71.90 C 294.45 93.59 310.60 124.36 314.20 156.79 C 315.59 165.80 314.83 174.94 315.03 184.01 C 313.53 222.29 305.13 260.64 287.97 295.04 C 286.56 298.09 283.87 301.28 280.14 300.79 C 274.71 299.80 269.74 297.22 264.77 294.91 C 252.33 302.74 239.78 310.41 227.45 318.42 C 225.36 319.56 223.07 321.51 220.55 320.52 C 215.90 319.02 211.51 316.44 208.42 312.61 C 206.05 309.61 203.01 307.30 200.23 304.72 C 196.28 301.12 194.61 295.48 195.29 290.25 C 197.04 275.26 201.77 260.84 206.78 246.67 C 211.95 232.67 217.80 218.91 224.71 205.68 C 229.28 196.96 234.04 188.08 241.02 181.01 C 245.56 176.40 252.41 176.42 258.39 177.07 C 265.23 176.87 272.76 176.13 278.69 180.32 C 281.23 183.65 281.60 188.07 283.00 191.93 C 286.04 201.06 287.88 210.64 292.04 219.36 C 294.46 208.38 295.77 197.16 296.25 185.93 C 298.31 167.83 295.49 149.01 287.48 132.58 C 280.33 117.37 268.82 104.64 255.74 94.27 C 238.76 81.54 218.42 73.29 197.36 70.64 C 189.70 69.68 181.98 68.42 174.25 69.22 C 164.74 70.23 155.17 71.23 145.93 73.82 C 130.90 77.89 116.51 84.59 104.09 94.05 C 83.83 108.97 68.77 131.37 64.18 156.25 C 61.96 167.32 62.70 178.67 63.19 189.86 C 64.29 199.90 65.05 210.06 67.72 219.84 C 71.12 210.82 73.49 201.45 76.34 192.24 C 77.64 188.32 78.26 184.04 80.55 180.54 C 85.15 177.01 91.33 176.41 96.94 177.00 C 102.11 177.63 107.40 175.88 112.48 177.49 C 116.72 178.74 119.93 182.00 122.48 185.47 C 126.04 190.34 129.21 195.50 132.16 200.76 C 142.69 220.33 151.29 240.94 157.83 262.18 C 160.84 272.22 163.93 282.46 164.08 293.03 C 164.35 298.55 161.32 303.68 156.95 306.88 C 151.96 310.52 148.74 316.31 142.99 318.93 C 140.31 320.15 137.00 321.84 134.30 319.73 C 120.96 311.48 107.78 302.96 94.36 294.84 C 93.31 295.53 92.27 296.22 91.23 296.91 C 96.84 307.04 101.99 317.74 103.61 329.32 C 104.47 339.19 102.94 349.16 104.39 359.00 L 103.42 359.00 C 102.57 346.92 104.65 334.54 101.33 322.72 C 98.97 313.69 94.86 305.25 90.18 297.23 C 88.56 297.86 86.94 298.48 85.32 299.08 C 91.07 309.38 96.51 320.25 97.72 332.15 C 98.59 341.07 97.89 350.05 98.19 359.00 L 97.00 359.00 C 96.99 351.64 97.01 344.29 97.00 336.93 C 97.13 323.67 91.07 311.42 84.76 300.12 C 82.05 300.36 79.26 301.09 76.56 300.44 C 73.61 299.14 72.07 296.06 70.65 293.35 C 53.88 259.10 45.70 221.04 44.45 183.03 C 42.85 156.37 48.50 129.12 61.94 105.93 C 78.82 75.77 107.85 52.76 141.02 43.08 Z" />
    <path fill="#ffffff" d=" M 133.86 47.89 C 161.56 37.64 192.71 37.12 220.79 46.22 C 246.64 54.62 269.78 71.12 286.11 92.85 C 287.53 94.75 288.88 97.25 287.82 99.64 C 286.33 101.76 283.91 102.96 281.88 104.49 C 275.96 92.02 265.66 82.12 253.89 75.16 C 235.21 64.03 213.58 58.83 192.06 57.12 C 166.14 55.50 139.51 58.95 115.73 69.79 C 99.94 77.04 85.07 88.31 77.64 104.45 C 74.97 102.38 70.10 100.56 71.41 96.33 C 73.76 91.11 78.09 87.08 81.82 82.83 C 96.07 67.27 114.03 55.11 133.86 47.89 Z" />
    <path fill="#0370B8" d=" M 123.66 67.62 C 151.70 57.04 182.73 55.29 212.07 60.85 C 233.00 65.10 254.03 73.29 269.39 88.60 C 274.27 93.43 278.03 99.24 280.97 105.41 C 279.36 106.21 277.83 107.27 276.06 107.66 C 273.37 107.36 271.48 105.13 269.59 103.42 C 254.96 88.02 235.64 77.58 215.32 71.81 C 193.95 66.02 171.14 65.54 149.55 70.48 C 126.83 75.76 105.20 87.06 89.11 104.11 C 87.56 105.50 86.02 107.22 83.89 107.62 C 82.09 107.26 80.36 106.62 78.63 106.01 C 80.72 100.17 84.09 94.85 88.43 90.43 C 97.96 79.92 110.53 72.67 123.66 67.62 Z" />
    <path fill="#ffffff" d=" M 68.10 100.09 C 72.44 104.44 77.51 108.05 83.03 110.73 C 73.42 122.50 66.56 136.37 62.81 151.08 C 58.28 149.21 53.81 147.22 49.37 145.16 C 52.84 129.15 59.38 113.93 68.10 100.09 Z" />
    <path fill="#ffffff" d=" M 276.29 110.72 C 281.91 108.18 287.01 104.50 291.27 100.05 C 300.03 113.91 306.80 129.16 309.96 145.31 C 305.47 147.15 301.06 149.18 296.58 151.06 C 292.90 136.33 286.04 122.39 276.29 110.72 Z" />
    <path fill="#ffffff" d=" M 49.17 146.66 C 53.69 148.55 58.21 150.47 62.61 152.65 C 60.03 163.56 60.14 174.84 60.72 185.97 C 62.64 218.58 70.95 251.19 87.45 279.56 C 89.53 283.30 92.43 286.72 93.42 290.97 C 92.67 294.53 88.27 295.09 85.49 296.53 C 82.67 297.32 79.28 299.63 76.50 297.71 C 73.67 295.22 72.43 291.52 70.79 288.24 C 54.25 252.60 46.69 213.17 46.57 173.99 C 46.51 164.83 47.25 155.63 49.17 146.66 Z" />
    <path fill="#ffffff" d=" M 297.03 152.34 C 301.46 150.41 305.85 148.37 310.38 146.65 C 311.59 154.03 312.85 161.47 312.73 168.99 C 313.48 208.16 306.46 247.72 290.70 283.68 C 288.55 288.15 286.89 292.95 283.86 296.91 C 280.89 300.29 276.33 297.13 272.94 296.13 C 270.55 294.82 266.26 294.30 266.15 290.93 C 266.85 286.74 269.88 283.47 271.84 279.82 C 288.92 250.41 297.47 216.51 298.80 182.65 C 299.95 172.51 298.51 162.36 297.03 152.34 Z" />
    <path fill="#ffffff" d=" M 95.46 181.52 C 99.86 178.15 105.67 177.93 110.98 178.30 C 109.92 182.74 109.43 187.35 110.24 191.88 C 112.93 209.40 118.94 226.20 125.36 242.65 C 132.31 259.61 139.87 276.52 150.42 291.60 C 153.06 295.55 156.61 298.85 160.92 300.91 C 157.40 305.22 152.66 308.91 147.03 309.72 C 142.65 307.32 139.86 302.92 137.03 298.96 C 128.48 285.89 121.81 271.69 115.58 257.40 C 107.19 237.43 99.54 216.97 95.37 195.66 C 94.73 191.05 93.32 185.92 95.46 181.52 Z" />
    <path fill="#ffffff" d=" M 248.26 178.20 C 253.71 178.03 259.85 178.04 264.19 181.83 C 265.69 186.65 264.63 191.86 263.90 196.75 C 260.12 215.26 253.75 233.14 246.68 250.62 C 240.92 264.74 234.45 278.61 226.85 291.84 C 223.79 296.98 220.62 302.13 216.55 306.56 C 215.06 308.02 213.41 309.81 211.16 309.81 C 210.82 309.70 210.15 309.48 209.81 309.37 C 205.39 307.67 201.68 304.62 198.67 301.01 C 201.62 299.28 204.60 297.42 206.68 294.63 C 213.62 285.86 218.87 275.90 223.83 265.91 C 232.89 247.01 240.60 227.41 246.04 207.15 C 248.30 197.75 251.22 187.80 248.26 178.20 Z" />
    <path fill="#0370B8" d=" M 83.39 180.35 C 86.98 178.61 91.05 178.45 94.96 178.19 C 93.52 183.10 92.87 188.28 93.84 193.35 C 96.90 211.04 102.82 228.08 109.24 244.80 C 116.07 262.00 123.59 279.00 133.12 294.90 C 136.15 299.74 139.19 304.71 143.38 308.64 C 145.37 310.76 148.45 310.53 151.09 310.74 C 147.14 314.55 142.74 318.57 137.05 319.28 C 132.93 318.20 130.50 314.16 128.02 310.98 C 114.23 290.73 104.56 268.03 95.64 245.32 C 89.30 227.86 82.92 210.16 80.49 191.67 C 80.70 188.83 80.75 185.99 80.78 183.15 C 80.62 181.67 82.36 181.00 83.39 180.35 Z" />
    <path fill="#0370B8" d=" M 264.06 178.17 C 269.03 178.54 275.02 178.43 278.62 182.45 C 280.03 186.06 279.35 190.06 278.83 193.79 C 274.92 215.86 267.24 237.05 258.85 257.77 C 251.75 274.76 243.96 291.55 234.07 307.11 C 231.09 311.98 227.33 316.33 222.91 319.94 C 217.63 318.12 212.62 315.41 208.86 311.20 C 209.10 310.74 209.57 309.82 209.81 309.37 C 210.15 309.48 210.82 309.70 211.16 309.81 C 214.13 311.35 216.51 308.21 218.35 306.32 C 225.80 297.29 231.10 286.74 236.32 276.33 C 244.61 259.61 251.57 242.25 257.51 224.57 C 261.08 213.28 264.60 201.86 265.91 190.05 C 266.52 185.98 265.35 181.98 264.06 178.17 Z" />
    <path fill="#ffffff" d=" M 111.83 179.26 C 114.41 179.97 116.86 181.33 118.64 183.36 C 122.93 187.92 126.02 193.41 129.34 198.68 C 127.91 198.50 126.47 198.32 125.04 198.14 C 125.41 205.45 127.36 212.55 129.63 219.47 C 134.63 234.74 140.70 249.68 148.14 263.93 C 150.87 268.82 153.37 274.25 158.31 277.32 C 153.52 271.30 149.48 264.73 146.24 257.75 C 139.54 243.86 133.74 229.50 129.30 214.72 C 127.72 209.47 126.39 204.10 126.18 198.60 C 129.94 202.09 132.54 206.58 134.89 211.08 C 142.12 224.87 148.04 239.33 152.97 254.09 C 155.29 260.37 156.03 267.16 158.78 273.29 C 161.22 278.21 161.88 283.76 162.55 289.14 C 162.79 292.51 163.28 296.38 160.88 299.15 C 156.92 298.39 154.48 294.82 152.06 291.93 C 144.82 282.05 139.23 271.08 134.03 260.02 C 125.25 240.73 117.58 220.82 112.80 200.14 C 111.20 193.31 110.42 186.20 111.83 179.26 Z" />
    <path fill="#ffffff" d=" M 244.44 180.24 C 245.95 178.49 248.01 180.30 248.20 182.11 C 249.09 186.82 248.32 191.66 247.42 196.32 C 243.92 213.79 237.84 230.62 231.10 247.07 C 224.99 261.42 218.39 275.67 209.72 288.68 C 206.56 293.01 203.46 298.41 197.62 299.20 C 195.56 290.27 198.06 281.24 200.09 272.57 C 200.62 274.18 201.15 275.79 201.69 277.40 C 208.00 271.69 211.40 263.71 215.17 256.26 C 221.88 241.98 227.72 227.25 232.03 212.07 C 233.44 207.42 233.95 202.57 234.32 197.74 C 232.85 198.18 231.37 198.59 229.88 198.94 C 234.30 192.44 237.83 184.85 244.44 180.24 Z" />
    <path fill="#ffffff" d=" M 79.05 191.90 C 80.23 189.13 80.34 186.09 80.78 183.15 C 80.75 185.99 80.70 188.83 80.49 191.67 C 80.11 194.03 79.87 196.46 80.34 198.83 C 85.00 220.27 92.40 241.01 100.85 261.22 C 106.71 274.96 112.95 288.57 120.58 301.42 C 122.80 305.14 125.27 308.70 127.32 312.51 C 119.64 308.43 112.51 303.41 105.05 298.95 C 102.24 297.12 99.11 295.67 96.72 293.27 C 95.38 289.97 94.75 286.35 92.72 283.35 C 82.16 266.74 74.67 248.28 69.79 229.24 C 68.20 224.30 70.29 219.35 71.70 214.66 C 74.18 207.08 75.99 199.28 79.05 191.90 Z" />
    <path fill="#ffffff" d=" M 280.38 191.51 C 283.27 198.93 285.16 206.69 287.60 214.25 C 288.60 217.80 290.11 221.28 290.41 224.99 C 290.17 228.49 288.97 231.83 288.04 235.19 C 283.24 251.73 276.53 267.79 267.30 282.36 C 265.39 285.18 264.33 288.42 263.43 291.67 C 262.91 294.15 260.31 295.15 258.46 296.48 C 249.45 301.83 240.78 307.75 231.67 312.93 C 243.54 295.09 252.75 275.64 260.83 255.83 C 269.21 235.02 276.57 213.67 280.38 191.51 Z" />
    <path fill="#ffffff" d=" M 222.33 215.34 C 225.44 209.56 228.11 203.28 233.13 198.85 C 232.61 210.19 228.18 220.84 224.48 231.42 C 219.96 243.46 214.83 255.29 208.61 266.55 C 206.79 269.91 204.54 273.03 201.81 275.71 C 201.88 271.32 202.56 266.96 203.84 262.77 C 208.53 246.44 214.84 230.58 222.33 215.34 Z" />
    <path fill="#ffffff" d=" M 85.32 299.08 C 86.94 298.48 88.56 297.86 90.18 297.23 C 94.86 305.25 98.97 313.69 101.33 322.72 C 104.65 334.54 102.57 346.92 103.42 359.00 L 98.19 359.00 C 97.89 350.05 98.59 341.07 97.72 332.15 C 96.51 320.25 91.07 309.38 85.32 299.08 Z" />
</svg>